<svg xmlns="http://www.w3.org/2000/svg" xmlns:xlink="http://www.w3.org/1999/xlink" width="500" zoomAndPan="magnify" viewBox="0 0 375 374.999991" height="500" preserveAspectRatio="xMidYMid meet" version="1.0"><defs><g/><clipPath id="id1"><path d="M 49.234375 49.234375 L 325.984375 49.234375 L 325.984375 325.984375 L 49.234375 325.984375 Z M 49.234375 49.234375 " clip-rule="nonzero"/></clipPath><clipPath id="id2"><path d="M 101.4375 78 L 203 78 L 203 131 L 101.4375 131 Z M 101.4375 78 " clip-rule="nonzero"/></clipPath><clipPath id="id3"><path d="M 137 56 L 251.4375 56 L 251.4375 163.929688 L 137 163.929688 Z M 137 56 " clip-rule="nonzero"/></clipPath></defs><rect x="-37.5" width="450" fill="#ffffff" y="-37.499999" height="449.999989" fill-opacity="1"/><rect x="-37.5" width="450" fill="#ffffff" y="-37.499999" height="449.999989" fill-opacity="1"/><rect x="-37.5" width="450" fill="#ffffff" y="-37.499999" height="449.999989" fill-opacity="1"/><rect x="-37.5" width="450" fill="#ffffff" y="-37.499999" height="449.999989" fill-opacity="1"/><g clip-path="url(#id1)"><path fill="#000000" d="M 325.984375 187.609375 C 325.984375 189.875 325.929688 192.140625 325.820312 194.402344 C 325.707031 196.664062 325.542969 198.921875 325.320312 201.175781 C 325.097656 203.429688 324.820312 205.675781 324.488281 207.914062 C 324.15625 210.15625 323.769531 212.386719 323.328125 214.605469 C 322.886719 216.828125 322.390625 219.035156 321.839844 221.234375 C 321.289062 223.429688 320.683594 225.613281 320.027344 227.777344 C 319.371094 229.945312 318.660156 232.097656 317.898438 234.226562 C 317.132812 236.359375 316.320312 238.472656 315.453125 240.566406 C 314.585938 242.65625 313.667969 244.726562 312.699219 246.773438 C 311.730469 248.820312 310.714844 250.84375 309.648438 252.839844 C 308.578125 254.835938 307.464844 256.808594 306.300781 258.75 C 305.136719 260.691406 303.921875 262.605469 302.664062 264.488281 C 301.40625 266.371094 300.105469 268.222656 298.753906 270.039062 C 297.40625 271.859375 296.011719 273.644531 294.578125 275.394531 C 293.140625 277.144531 291.660156 278.859375 290.140625 280.539062 C 288.621094 282.214844 287.058594 283.855469 285.457031 285.457031 C 283.855469 287.058594 282.214844 288.621094 280.539062 290.140625 C 278.859375 291.660156 277.144531 293.140625 275.394531 294.578125 C 273.644531 296.011719 271.859375 297.40625 270.039062 298.753906 C 268.222656 300.105469 266.371094 301.40625 264.488281 302.664062 C 262.605469 303.921875 260.691406 305.136719 258.75 306.300781 C 256.808594 307.464844 254.835938 308.578125 252.839844 309.648438 C 250.84375 310.714844 248.820312 311.730469 246.773438 312.699219 C 244.726562 313.667969 242.65625 314.585938 240.566406 315.453125 C 238.472656 316.320312 236.359375 317.132812 234.226562 317.898438 C 232.097656 318.660156 229.945312 319.371094 227.777344 320.027344 C 225.613281 320.683594 223.429688 321.289062 221.234375 321.839844 C 219.035156 322.390625 216.828125 322.886719 214.605469 323.328125 C 212.386719 323.769531 210.15625 324.15625 207.914062 324.488281 C 205.675781 324.820312 203.429688 325.097656 201.175781 325.320312 C 198.921875 325.542969 196.664062 325.707031 194.402344 325.820312 C 192.140625 325.929688 189.875 325.984375 187.609375 325.984375 C 185.347656 325.984375 183.082031 325.929688 180.820312 325.820312 C 178.558594 325.707031 176.300781 325.542969 174.046875 325.320312 C 171.792969 325.097656 169.546875 324.820312 167.308594 324.488281 C 165.066406 324.15625 162.835938 323.769531 160.617188 323.328125 C 158.394531 322.886719 156.183594 322.390625 153.988281 321.839844 C 151.792969 321.289062 149.609375 320.683594 147.441406 320.027344 C 145.277344 319.371094 143.125 318.660156 140.992188 317.898438 C 138.863281 317.132812 136.75 316.320312 134.65625 315.453125 C 132.566406 314.585938 130.496094 313.667969 128.449219 312.699219 C 126.402344 311.730469 124.378906 310.714844 122.382812 309.648438 C 120.382812 308.578125 118.414062 307.464844 116.472656 306.300781 C 114.53125 305.136719 112.617188 303.921875 110.734375 302.664062 C 108.851562 301.40625 107 300.105469 105.179688 298.753906 C 103.363281 297.40625 101.578125 296.011719 99.828125 294.578125 C 98.078125 293.140625 96.363281 291.660156 94.683594 290.140625 C 93.007812 288.621094 91.367188 287.058594 89.765625 285.457031 C 88.164062 283.855469 86.601562 282.214844 85.082031 280.539062 C 83.5625 278.859375 82.082031 277.144531 80.644531 275.394531 C 79.207031 273.644531 77.816406 271.859375 76.46875 270.039062 C 75.117188 268.222656 73.816406 266.371094 72.554688 264.488281 C 71.296875 262.605469 70.085938 260.691406 68.921875 258.75 C 67.757812 256.808594 66.644531 254.835938 65.574219 252.839844 C 64.507812 250.84375 63.488281 248.820312 62.519531 246.773438 C 61.554688 244.726562 60.636719 242.65625 59.769531 240.566406 C 58.902344 238.472656 58.085938 236.359375 57.324219 234.226562 C 56.5625 232.097656 55.851562 229.945312 55.195312 227.777344 C 54.535156 225.613281 53.933594 223.429688 53.382812 221.234375 C 52.832031 219.035156 52.335938 216.828125 51.894531 214.605469 C 51.453125 212.386719 51.066406 210.15625 50.734375 207.914062 C 50.402344 205.675781 50.125 203.429688 49.902344 201.175781 C 49.679688 198.921875 49.515625 196.664062 49.402344 194.402344 C 49.292969 192.140625 49.234375 189.875 49.234375 187.609375 C 49.234375 185.347656 49.292969 183.082031 49.402344 180.820312 C 49.515625 178.558594 49.679688 176.300781 49.902344 174.046875 C 50.125 171.792969 50.402344 169.546875 50.734375 167.308594 C 51.066406 165.066406 51.453125 162.835938 51.894531 160.617188 C 52.335938 158.394531 52.832031 156.183594 53.382812 153.988281 C 53.933594 151.792969 54.535156 149.609375 55.195312 147.441406 C 55.851562 145.277344 56.5625 143.125 57.324219 140.992188 C 58.085938 138.863281 58.902344 136.75 59.769531 134.65625 C 60.636719 132.566406 61.554688 130.496094 62.519531 128.449219 C 63.488281 126.402344 64.507812 124.378906 65.574219 122.382812 C 66.644531 120.382812 67.757812 118.414062 68.921875 116.472656 C 70.085938 114.53125 71.296875 112.617188 72.554688 110.734375 C 73.816406 108.851562 75.117188 107 76.46875 105.179688 C 77.816406 103.363281 79.207031 101.578125 80.644531 99.828125 C 82.082031 98.078125 83.5625 96.363281 85.082031 94.683594 C 86.601562 93.007812 88.164062 91.367188 89.765625 89.765625 C 91.367188 88.164062 93.007812 86.601562 94.683594 85.082031 C 96.363281 83.5625 98.078125 82.082031 99.828125 80.644531 C 101.578125 79.207031 103.363281 77.816406 105.179688 76.46875 C 107 75.117188 108.851562 73.816406 110.734375 72.554688 C 112.617188 71.296875 114.53125 70.085938 116.472656 68.921875 C 118.414062 67.757812 120.382812 66.644531 122.382812 65.574219 C 124.378906 64.507812 126.402344 63.488281 128.449219 62.519531 C 130.496094 61.554688 132.566406 60.636719 134.65625 59.769531 C 136.75 58.902344 138.863281 58.085938 140.992188 57.324219 C 143.125 56.5625 145.277344 55.851562 147.441406 55.195312 C 149.609375 54.535156 151.792969 53.933594 153.988281 53.382812 C 156.183594 52.832031 158.394531 52.335938 160.617188 51.894531 C 162.835938 51.453125 165.066406 51.066406 167.308594 50.734375 C 169.546875 50.402344 171.792969 50.125 174.046875 49.902344 C 176.300781 49.679688 178.558594 49.515625 180.820312 49.402344 C 183.082031 49.292969 185.347656 49.234375 187.609375 49.234375 C 189.875 49.234375 192.140625 49.292969 194.402344 49.402344 C 196.664062 49.515625 198.921875 49.679688 201.175781 49.902344 C 203.429688 50.125 205.675781 50.402344 207.914062 50.734375 C 210.15625 51.066406 212.386719 51.453125 214.605469 51.894531 C 216.828125 52.335938 219.035156 52.832031 221.234375 53.382812 C 223.429688 53.933594 225.613281 54.535156 227.777344 55.195312 C 229.945312 55.851562 232.097656 56.5625 234.226562 57.324219 C 236.359375 58.085938 238.472656 58.902344 240.566406 59.769531 C 242.65625 60.636719 244.726562 61.554688 246.773438 62.519531 C 248.820312 63.488281 250.84375 64.507812 252.839844 65.574219 C 254.835938 66.644531 256.808594 67.757812 258.75 68.921875 C 260.691406 70.085938 262.605469 71.296875 264.488281 72.554688 C 266.371094 73.816406 268.222656 75.117188 270.039062 76.46875 C 271.859375 77.816406 273.644531 79.207031 275.394531 80.644531 C 277.144531 82.082031 278.859375 83.5625 280.539062 85.082031 C 282.214844 86.601562 283.855469 88.164062 285.457031 89.765625 C 287.058594 91.367188 288.621094 93.007812 290.140625 94.683594 C 291.660156 96.363281 293.140625 98.078125 294.578125 99.828125 C 296.011719 101.578125 297.40625 103.363281 298.753906 105.179688 C 300.105469 107 301.40625 108.851562 302.664062 110.734375 C 303.921875 112.617188 305.136719 114.53125 306.300781 116.472656 C 307.464844 118.414062 308.578125 120.382812 309.648438 122.382812 C 310.714844 124.378906 311.730469 126.402344 312.699219 128.449219 C 313.667969 130.496094 314.585938 132.566406 315.453125 134.65625 C 316.320312 136.75 317.132812 138.863281 317.898438 140.992188 C 318.660156 143.125 319.371094 145.277344 320.027344 147.441406 C 320.683594 149.609375 321.289062 151.792969 321.839844 153.988281 C 322.390625 156.183594 322.886719 158.394531 323.328125 160.617188 C 323.769531 162.835938 324.15625 165.066406 324.488281 167.308594 C 324.820312 169.546875 325.097656 171.792969 325.320312 174.046875 C 325.542969 176.300781 325.707031 178.558594 325.820312 180.820312 C 325.929688 183.082031 325.984375 185.347656 325.984375 187.609375 Z M 325.984375 187.609375 " fill-opacity="1" fill-rule="nonzero"/></g><g fill="#ffffff" fill-opacity="1"><g transform="translate(123.805134, 313.622168)"><g><path d="M 92.804688 -52.929688 C 84.511719 -30.523438 65.8125 -22.054688 51.695312 -22.054688 C 37.757812 -22.054688 23.996094 -30.347656 23.996094 -41.992188 C 23.996094 -44.640625 24.347656 -47.636719 25.40625 -50.636719 L 47.636719 -112.566406 C 51.871094 -124.210938 59.105469 -125.976562 63.339844 -125.976562 C 67.398438 -125.976562 70.222656 -123.507812 70.222656 -118.214844 C 70.222656 -115.742188 69.515625 -112.566406 68.105469 -109.039062 C 67.574219 -107.804688 67.398438 -106.566406 67.398438 -105.332031 C 67.398438 -99.15625 73.398438 -94.042969 80.277344 -94.042969 C 86.453125 -94.042969 93.335938 -98.277344 96.511719 -109.921875 C 97.746094 -114.507812 98.277344 -118.742188 98.277344 -122.449219 C 98.277344 -141.855469 82.925781 -153.148438 62.8125 -153.148438 C 49.933594 -153.148438 29.996094 -147.855469 20.644531 -121.390625 L -1.410156 -58.402344 C -3.351562 -52.929688 -4.410156 -46.933594 -4.410156 -41.640625 C -4.410156 -18.527344 16.761719 0 47.460938 0 C 71.988281 0 102.511719 -12.527344 113.449219 -47.109375 C 113.800781 -48.519531 113.980469 -49.753906 113.980469 -50.8125 C 113.980469 -56.988281 108.507812 -60.519531 103.039062 -60.519531 C 98.453125 -60.519531 94.042969 -58.222656 92.804688 -52.929688 Z M 92.804688 -52.929688 "/></g></g></g><g clip-path="url(#id2)"><path fill="#ffffff" d="M 152.515625 126.355469 C 155.914062 125.414062 159.328125 124.402344 162.679688 123.375 C 166.042969 122.339844 169.257812 121.378906 172.574219 120.679688 C 175.902344 119.988281 179.296875 119.359375 182.601562 118.949219 C 184.257812 118.75 185.882812 118.621094 187.472656 118.65625 C 189.050781 118.691406 190.722656 118.914062 192.359375 119.214844 C 195.644531 119.84375 198.910156 120.96875 202.164062 122.453125 C 199.734375 119.824219 196.695312 117.691406 193.300781 116.214844 C 192.453125 115.84375 191.585938 115.519531 190.695312 115.234375 C 189.820312 114.9375 188.890625 114.710938 187.945312 114.519531 C 186.054688 114.160156 184.164062 114.046875 182.324219 114.050781 C 178.636719 114.074219 175.09375 114.484375 171.53125 115.035156 C 167.953125 115.582031 164.394531 116.441406 161.007812 117.28125 C 157.609375 118.121094 154.253906 118.914062 150.855469 119.65625 C 147.4375 120.394531 144.019531 121.179688 140.691406 121.824219 C 139.027344 122.144531 137.394531 122.410156 135.84375 122.5625 C 135.054688 122.628906 134.34375 122.675781 133.546875 122.6875 L 130.964844 122.722656 C 127.582031 122.75 124.390625 122.574219 121.601562 121.855469 C 116.070312 120.492188 112.085938 116.195312 110.613281 110.519531 C 110.203125 109.117188 109.976562 107.625 109.847656 106.113281 C 109.726562 104.617188 109.722656 103.039062 109.867188 101.613281 C 110.207031 98.617188 111 95.746094 112.445312 93.289062 C 113.863281 90.828125 115.960938 88.835938 118.410156 87.375 C 120.855469 85.914062 123.738281 85.054688 126.769531 84.753906 C 127.53125 84.691406 128.292969 84.652344 129.050781 84.65625 C 129.429688 84.667969 129.808594 84.699219 130.191406 84.714844 C 130.578125 84.726562 130.957031 84.769531 131.339844 84.824219 C 132.875 85.007812 134.425781 85.34375 135.945312 85.890625 C 139.003906 86.960938 141.960938 88.707031 144.730469 91.007812 C 143.359375 87.640625 140.898438 84.671875 137.78125 82.429688 C 136.222656 81.300781 134.460938 80.40625 132.601562 79.75 C 130.746094 79.089844 128.757812 78.652344 126.773438 78.53125 C 122.816406 78.234375 118.65625 78.960938 114.925781 80.824219 C 111.207031 82.6875 108 85.632812 105.773438 89.175781 C 103.542969 92.71875 102.265625 96.722656 101.78125 100.6875 C 101.539062 102.753906 101.519531 104.699219 101.640625 106.703125 C 101.773438 108.691406 102.042969 110.695312 102.574219 112.675781 C 103.125 114.644531 103.816406 116.617188 104.855469 118.46875 L 105.226562 119.171875 C 105.363281 119.398438 105.511719 119.617188 105.65625 119.84375 L 106.535156 121.179688 L 107.542969 122.429688 L 108.054688 123.046875 L 108.621094 123.621094 C 111.554688 126.746094 115.632812 128.867188 119.636719 129.796875 C 123.664062 130.773438 127.546875 130.726562 131.148438 130.597656 L 133.8125 130.46875 C 134.765625 130.417969 135.800781 130.332031 136.753906 130.195312 C 138.675781 129.917969 140.488281 129.523438 142.25 129.101562 C 145.765625 128.242188 149.136719 127.300781 152.515625 126.355469 Z M 152.515625 126.355469 " fill-opacity="1" fill-rule="nonzero"/></g><g clip-path="url(#id3)"><path fill="#ffffff" d="M 251.304688 97.054688 C 251.253906 95.636719 251.101562 94.226562 250.847656 92.839844 C 250.59375 91.453125 250.238281 90.085938 249.78125 88.742188 C 249.664062 88.410156 249.546875 88.074219 249.417969 87.746094 C 249.292969 87.421875 249.164062 87.113281 249.011719 86.78125 C 248.71875 86.132812 248.441406 85.480469 248.089844 84.855469 C 247.445312 83.582031 246.648438 82.394531 245.824219 81.238281 C 244.957031 80.105469 244.046875 79.015625 243.042969 78.03125 C 241.054688 76.042969 238.789062 74.363281 236.480469 73.003906 L 235.632812 72.515625 L 235.214844 72.285156 L 234.753906 72.050781 C 234.140625 71.730469 233.527344 71.417969 232.890625 71.148438 C 231.632812 70.566406 230.320312 70.113281 229.003906 69.710938 C 226.355469 68.941406 223.621094 68.519531 220.933594 68.441406 C 219.589844 68.398438 218.253906 68.433594 216.964844 68.53125 C 216.316406 68.582031 215.691406 68.632812 215.085938 68.707031 C 214.429688 68.792969 213.769531 68.859375 213.121094 68.976562 C 210.511719 69.40625 207.953125 70.09375 205.539062 71.085938 C 204.175781 71.632812 202.859375 72.269531 201.589844 72.980469 C 201.230469 72.316406 200.851562 71.65625 200.445312 71.015625 C 199.929688 70.1875 199.359375 69.390625 198.761719 68.617188 C 198.449219 68.214844 198.175781 67.867188 197.871094 67.496094 C 197.574219 67.128906 197.261719 66.753906 196.9375 66.390625 C 194.339844 63.46875 191.144531 60.890625 187.472656 59.09375 C 183.816406 57.261719 179.707031 56.292969 175.625 56.113281 C 171.53125 55.945312 167.46875 56.664062 163.703125 57.902344 C 161.96875 58.484375 160.074219 59.207031 158.289062 60.15625 C 156.5 61.097656 154.789062 62.246094 153.234375 63.589844 C 151.6875 64.949219 150.289062 66.492188 149.117188 68.183594 C 147.949219 69.871094 146.953125 71.65625 146.25 73.546875 C 144.753906 77.285156 144.253906 81.300781 144.613281 85.070312 C 144.769531 86.960938 145.175781 88.796875 145.71875 90.550781 C 146.28125 92.304688 147.007812 93.984375 147.941406 95.515625 C 147.609375 91.953125 147.785156 88.488281 148.503906 85.273438 C 149.234375 82.0625 150.476562 79.132812 152.253906 76.679688 C 152.675781 76.054688 153.164062 75.484375 153.632812 74.910156 C 154.144531 74.363281 154.632812 73.820312 155.191406 73.34375 C 156.28125 72.359375 157.429688 71.488281 158.652344 70.71875 C 159.871094 69.9375 161.152344 69.257812 162.488281 68.636719 C 163.828125 68.011719 165.199219 67.488281 166.769531 66.9375 C 169.605469 65.921875 172.519531 65.394531 175.417969 65.394531 C 178.308594 65.382812 181.152344 65.953125 183.855469 67.03125 C 186.535156 68.144531 189.0625 69.773438 191.332031 71.867188 C 191.621094 72.125 191.90625 72.390625 192.195312 72.671875 C 192.480469 72.945312 192.78125 73.253906 193.042969 73.519531 C 193.582031 74.074219 194.097656 74.648438 194.601562 75.242188 C 195.601562 76.433594 196.527344 77.703125 197.359375 79.050781 L 197.359375 79.054688 L 198.875 81.476562 L 201.746094 80.445312 C 203.792969 79.710938 205.839844 79.105469 207.902344 78.667969 C 209.96875 78.242188 212.03125 77.953125 214.09375 77.863281 C 214.609375 77.824219 215.125 77.832031 215.640625 77.816406 C 216.203125 77.816406 216.75 77.804688 217.277344 77.8125 C 218.335938 77.828125 219.351562 77.882812 220.355469 77.972656 C 221.363281 78.074219 222.339844 78.222656 223.308594 78.410156 C 224.273438 78.601562 225.214844 78.863281 226.144531 79.136719 C 227.0625 79.457031 227.976562 79.773438 228.855469 80.183594 C 229.304688 80.371094 229.734375 80.59375 230.164062 80.820312 L 230.492188 80.980469 L 230.847656 81.171875 L 231.535156 81.550781 C 233.292969 82.546875 234.855469 83.679688 236.21875 84.992188 C 236.910156 85.644531 237.515625 86.355469 238.101562 87.082031 C 238.648438 87.835938 239.1875 88.589844 239.617188 89.417969 C 239.855469 89.816406 240.042969 90.246094 240.242188 90.664062 C 240.347656 90.867188 240.449219 91.097656 240.535156 91.320312 L 240.800781 91.976562 C 241.132812 92.855469 241.40625 93.765625 241.613281 94.6875 C 241.816406 95.613281 241.953125 96.542969 242.023438 97.480469 C 242.074219 98.414062 242.0625 99.347656 241.988281 100.269531 C 241.792969 102.117188 241.339844 103.9375 240.59375 105.632812 C 240.226562 106.488281 239.757812 107.304688 239.253906 108.113281 C 238.730469 108.910156 238.132812 109.683594 237.480469 110.433594 C 236.828125 111.1875 236.097656 111.90625 235.320312 112.625 C 234.929688 112.984375 234.53125 113.34375 234.105469 113.710938 C 233.691406 114.070312 233.222656 114.46875 232.84375 114.777344 C 231.253906 116.101562 229.511719 117.242188 227.652344 118.207031 C 225.785156 119.175781 223.808594 119.996094 221.699219 120.679688 C 220.652344 121.03125 219.550781 121.339844 218.441406 121.675781 C 217.382812 121.992188 216.3125 122.273438 215.234375 122.515625 C 213.070312 122.996094 210.875 123.386719 208.652344 123.605469 L 205.226562 123.695312 L 205.796875 148.960938 C 204.175781 148.40625 202.5 147.917969 200.78125 147.574219 C 199.214844 147.25 197.597656 147.054688 196.007812 146.988281 C 194.398438 146.90625 192.804688 146.976562 191.253906 147.113281 C 188.144531 147.398438 185.15625 147.976562 182.214844 148.648438 C 179.28125 149.339844 176.402344 150.113281 173.511719 151.035156 C 172.070312 151.492188 170.628906 152.003906 169.230469 152.535156 C 167.824219 153.066406 166.476562 153.609375 165.140625 154.085938 C 164.46875 154.328125 163.800781 154.558594 163.125 154.773438 C 162.789062 154.882812 162.449219 154.988281 162.109375 155.085938 L 161.050781 155.40625 C 159.570312 155.855469 158.175781 156.34375 156.796875 156.796875 C 154.042969 157.722656 151.328125 158.507812 148.5625 159.023438 C 146.355469 159.4375 144.132812 159.667969 141.894531 159.734375 C 140.539062 150.664062 138.988281 141.683594 137.808594 132.621094 C 137.710938 142.410156 138.050781 152.222656 138.101562 161.96875 L 138.109375 163.820312 L 140.09375 163.863281 C 143.167969 163.949219 146.261719 163.742188 149.296875 163.234375 C 152.328125 162.730469 155.300781 161.925781 158.140625 161.03125 C 159.5625 160.589844 160.960938 160.132812 162.304688 159.757812 L 163.363281 159.460938 C 163.734375 159.363281 164.097656 159.253906 164.460938 159.144531 C 165.191406 158.929688 165.921875 158.695312 166.640625 158.453125 C 168.085938 157.964844 169.484375 157.4375 170.839844 156.953125 C 172.199219 156.46875 173.546875 156.019531 174.917969 155.613281 C 177.652344 154.796875 180.476562 154.097656 183.285156 153.492188 C 186.09375 152.902344 188.90625 152.417969 191.664062 152.21875 C 193.039062 152.125 194.398438 152.09375 195.730469 152.1875 C 197.078125 152.273438 198.386719 152.453125 199.695312 152.75 C 202.339844 153.332031 204.90625 154.300781 207.5625 155.457031 L 211.421875 157.066406 L 211.324219 152.882812 L 210.765625 129.066406 C 212.605469 129.050781 214.449219 128.945312 216.285156 128.71875 C 217.519531 128.570312 218.757812 128.378906 219.984375 128.152344 C 221.160156 127.9375 222.34375 127.691406 223.5625 127.40625 C 225.984375 126.839844 228.460938 126.101562 230.859375 125.070312 C 233.253906 124.039062 235.570312 122.753906 237.71875 121.210938 C 238.28125 120.8125 238.730469 120.480469 239.234375 120.105469 C 239.726562 119.734375 240.234375 119.347656 240.738281 118.933594 C 241.734375 118.109375 242.734375 117.230469 243.679688 116.253906 C 244.628906 115.28125 245.53125 114.230469 246.359375 113.105469 C 247.175781 111.964844 247.941406 110.769531 248.582031 109.492188 C 249.890625 106.949219 250.695312 104.160156 251.085938 101.335938 C 251.269531 99.90625 251.339844 98.480469 251.304688 97.054688 Z M 251.304688 97.054688 " fill-opacity="1" fill-rule="nonzero"/></g></svg>